<svg width="78" height="78" viewBox="0 0 78 78" fill="none" xmlns="http://www.w3.org/2000/svg">
<g filter="url(#filter0_d_28_154)">
<path d="M50.3063 67.8728H9.30365C8.46288 67.8728 7.65654 67.5388 7.06202 66.9443C6.4675 66.3498 6.13351 65.5435 6.13351 64.7027V5.30365C6.13351 4.46288 6.4675 3.65654 7.06202 3.06202C7.65654 2.4675 8.46288 2.13351 9.30365 2.13351H20.9698V5.30365C20.9715 6.70892 21.5305 8.05614 22.5241 9.04981C23.5178 10.0435 24.865 10.6025 26.2703 10.6041H43.2369C44.6427 10.6033 45.9907 10.0447 46.9851 9.05093C47.9795 8.05717 48.5389 6.70946 48.5406 5.30365V2.13351H60.2067C61.0475 2.13351 61.8538 2.4675 62.4483 3.06202C63.0428 3.65654 63.3768 4.46288 63.3768 5.30365V29.3365C63.3768 29.6182 63.4887 29.8883 63.6879 30.0875C63.8871 30.2866 64.1572 30.3985 64.4388 30.3985C64.7205 30.3985 64.9906 30.2866 65.1898 30.0875C65.3889 29.8883 65.5008 29.6182 65.5008 29.3365V5.30365C65.4992 3.8992 64.9412 2.5526 63.9489 1.55861C62.9567 0.564616 61.6111 0.00419142 60.2067 0H9.30365C7.89755 0.00167793 6.54952 0.560993 5.55526 1.55526C4.56099 2.54952 4.00168 3.89755 4 5.30365V64.69C4.00168 66.0961 4.56099 67.4441 5.55526 68.4384C6.54952 69.4327 7.89755 69.992 9.30365 69.9937H50.3063C50.5775 69.9788 50.8328 69.8606 51.0195 69.6634C51.2062 69.4662 51.3103 69.2049 51.3103 68.9332C51.3103 68.6616 51.2062 68.4003 51.0195 68.2031C50.8328 68.0059 50.5775 67.8877 50.3063 67.8728ZM23.0906 2.12083H46.4229V5.29097C46.4229 6.13175 46.0889 6.93809 45.4944 7.53261C44.8999 8.12712 44.0935 8.46112 43.2527 8.46112H26.2703C25.4295 8.46112 24.6232 8.12712 24.0286 7.53261C23.4341 6.93809 23.1001 6.13175 23.1001 5.29097L23.0906 2.12083ZM45.009 20.5077H37.9396C37.6684 20.4928 37.4131 20.3747 37.2264 20.1774C37.0397 19.9802 36.9356 19.7189 36.9356 19.4473C36.9356 19.1756 37.0397 18.9143 37.2264 18.7171C37.4131 18.5199 37.6684 18.4017 37.9396 18.3868H45.009C45.2757 18.4075 45.5247 18.528 45.7064 18.7243C45.8881 18.9206 45.989 19.1782 45.989 19.4457C45.989 19.7131 45.8881 19.9708 45.7064 20.1671C45.5247 20.3633 45.2757 20.487 45.009 20.5077ZM18.9377 18.3868H32.2809C32.5521 18.4017 32.8073 18.5199 32.9941 18.7171C33.1808 18.9143 33.2849 19.1756 33.2849 19.4473C33.2849 19.7189 33.1808 19.9802 32.9941 20.1774C32.8073 20.3747 32.5521 20.4928 32.2809 20.5077H18.9377C18.6665 20.4928 18.4113 20.3747 18.2245 20.1774C18.0378 19.9802 17.9337 19.7189 17.9337 19.4473C17.9337 19.1756 18.0378 18.9143 18.2245 18.7171C18.4113 18.5199 18.6665 18.4017 18.9377 18.3868ZM13.2822 20.5077C12.4167 20.5077 10.8063 20.7581 10.8063 19.4457C10.8063 18.1332 12.4167 18.3964 13.2822 18.3868C13.5489 18.4075 13.7979 18.528 13.9796 18.7243C14.1613 18.9206 14.2622 19.1782 14.2622 19.4457C14.2622 19.7131 14.1613 19.9708 13.9796 20.1671C13.7979 20.3633 13.5489 20.487 13.2822 20.5077ZM45.009 30.4017H32.2809C32.0097 30.3869 31.7544 30.2687 31.5677 30.0714C31.3809 29.8742 31.2769 29.6129 31.2769 29.3413C31.2769 29.0697 31.3809 28.8084 31.5677 28.6111C31.7544 28.4139 32.0097 28.2957 32.2809 28.2809H45.009C45.2802 28.2957 45.5354 28.4139 45.7222 28.6111C45.9089 28.8084 46.013 29.0697 46.013 29.3413C46.013 29.6129 45.9089 29.8742 45.7222 30.0714C45.5354 30.2687 45.2802 30.3869 45.009 30.4017ZM18.9377 28.2809H26.6253C26.8965 28.2957 27.1518 28.4139 27.3385 28.6111C27.5253 28.8084 27.6293 29.0697 27.6293 29.3413C27.6293 29.6129 27.5253 29.8742 27.3385 30.0714C27.1518 30.2687 26.8965 30.3869 26.6253 30.4017H18.9377C18.6665 30.3869 18.4113 30.2687 18.2245 30.0714C18.0378 29.8742 17.9337 29.6129 17.9337 29.3413C17.9337 29.0697 18.0378 28.8084 18.2245 28.6111C18.4113 28.4139 18.6665 28.2957 18.9377 28.2809ZM13.2822 30.4017H11.8651C11.5939 30.3869 11.3387 30.2687 11.152 30.0714C10.9652 29.8742 10.8611 29.6129 10.8611 29.3413C10.8611 29.0697 10.9652 28.8084 11.152 28.6111C11.3387 28.4139 11.5939 28.2957 11.8651 28.2809H13.2822C13.5534 28.2957 13.8086 28.4139 13.9954 28.6111C14.1821 28.8084 14.2862 29.0697 14.2862 29.3413C14.2862 29.6129 14.1821 29.8742 13.9954 30.0714C13.8086 30.2687 13.5534 30.3869 13.2822 30.4017ZM45.009 40.3021H37.9396C37.6684 40.2872 37.4131 40.169 37.2264 39.9718C37.0397 39.7746 36.9356 39.5133 36.9356 39.2417C36.9356 38.97 37.0397 38.7087 37.2264 38.5115C37.4131 38.3143 37.6684 38.1961 37.9396 38.1812H45.009C45.2802 38.1961 45.5354 38.3143 45.7222 38.5115C45.9089 38.7087 46.013 38.97 46.013 39.2417C46.013 39.5133 45.9089 39.7746 45.7222 39.9718C45.5354 40.169 45.2802 40.2872 45.009 40.3021ZM32.2809 40.3021H18.9377C18.6665 40.2872 18.4113 40.169 18.2245 39.9718C18.0378 39.7746 17.9337 39.5133 17.9337 39.2417C17.9337 38.97 18.0378 38.7087 18.2245 38.5115C18.4113 38.3143 18.6665 38.1961 18.9377 38.1812H32.2809C32.5521 38.1961 32.8073 38.3143 32.9941 38.5115C33.1808 38.7087 33.2849 38.97 33.2849 39.2417C33.2849 39.5133 33.1808 39.7746 32.9941 39.9718C32.8073 40.169 32.5521 40.2872 32.2809 40.3021ZM13.2822 40.3021H11.8651C11.5939 40.2872 11.3387 40.169 11.152 39.9718C10.9652 39.7746 10.8611 39.5133 10.8611 39.2417C10.8611 38.97 10.9652 38.7087 11.152 38.5115C11.3387 38.3143 11.5939 38.1961 11.8651 38.1812H13.2822C13.5534 38.1961 13.8086 38.3143 13.9954 38.5115C14.1821 38.7087 14.2862 38.97 14.2862 39.2417C14.2862 39.5133 14.1821 39.7746 13.9954 39.9718C13.8086 40.169 13.5534 40.2872 13.2822 40.3021ZM32.2809 50.1993H18.9377C18.6665 50.1844 18.4113 50.0662 18.2245 49.869C18.0378 49.6718 17.9337 49.4105 17.9337 49.1389C17.9337 48.8672 18.0378 48.6059 18.2245 48.4087C18.4113 48.2115 18.6665 48.0933 18.9377 48.0784H32.2809C32.5521 48.0933 32.8073 48.2115 32.9941 48.4087C33.1808 48.6059 33.2849 48.8672 33.2849 49.1389C33.2849 49.4105 33.1808 49.6718 32.9941 49.869C32.8073 50.0662 32.5521 50.1844 32.2809 50.1993ZM13.2822 50.1993C12.4167 50.1993 10.8063 50.4529 10.8063 49.1404C10.8063 47.828 12.4167 48.0911 13.2822 48.0784C13.5534 48.0933 13.8086 48.2115 13.9954 48.4087C14.1821 48.6059 14.2862 48.8672 14.2862 49.1389C14.2862 49.4105 14.1821 49.6718 13.9954 49.869C13.8086 50.0662 13.5534 50.1844 13.2822 50.1993ZM32.2809 60.0996H18.9377C18.6665 60.0848 18.4113 59.9666 18.2245 59.7694C18.0378 59.5721 17.9337 59.3108 17.9337 59.0392C17.9337 58.7676 18.0378 58.5063 18.2245 58.3091C18.4113 58.1118 18.6665 57.9936 18.9377 57.9788H32.2809C32.5521 57.9936 32.8073 58.1118 32.9941 58.3091C33.1808 58.5063 33.2849 58.7676 33.2849 59.0392C33.2849 59.3108 33.1808 59.5721 32.9941 59.7694C32.8073 59.9666 32.5521 60.0848 32.2809 60.0996ZM13.2822 60.0996C12.4167 60.0996 10.8063 60.3532 10.8063 59.0376C10.8063 57.722 12.4167 57.9915 13.2822 57.9788C13.5534 57.9936 13.8086 58.1118 13.9954 58.3091C14.1821 58.5063 14.2862 58.7676 14.2862 59.0392C14.2862 59.3108 14.1821 59.5721 13.9954 59.7694C13.8086 59.9666 13.5534 60.0848 13.2822 60.0996ZM73.9715 41.4972C73.9082 40.8491 73.7068 40.222 73.3808 39.6582C73.0548 39.0945 72.6118 38.6071 72.0816 38.2289C71.5515 37.8507 70.9464 37.5905 70.3073 37.4658C69.6681 37.3411 69.0096 37.3548 68.3762 37.506C68.0894 36.9645 67.6971 36.4859 67.2223 36.0985C66.7475 35.7111 66.2 35.4228 65.6119 35.2505C65.0239 35.0782 64.4073 35.0255 63.7985 35.0955C63.1898 35.1654 62.6012 35.3566 62.0676 35.6578C61.4254 35.1325 60.6549 34.7877 59.8353 34.659C59.0157 34.5303 58.1765 34.6223 57.4043 34.9255V22.0579C57.3155 17.2266 49.0763 17.2393 48.9875 22.0579V48.1038C42.3302 46.5663 33.0766 49.2546 36.307 56.8597C36.4207 57.0446 36.5882 57.1902 36.7872 57.2769C36.9861 57.3636 37.2069 57.3873 37.4197 57.3448C39.5234 56.8363 41.6938 56.6609 43.8519 56.8249C47.7322 57.9376 51.5902 62.7372 55.0584 64.1384V68.9317C55.0584 69.2125 55.1699 69.4818 55.3685 69.6804C55.5671 69.8789 55.8364 69.9905 56.1172 69.9905H72.9412C73.0803 69.9909 73.2182 69.9638 73.3469 69.9107C73.4755 69.8577 73.5924 69.7797 73.6908 69.6813C73.7892 69.5829 73.8672 69.466 73.9202 69.3374C73.9733 69.2087 74.0004 69.0708 74 68.9317V41.8142C73.9965 41.7081 73.987 41.6023 73.9715 41.4972ZM71.8728 67.8697H57.1697V64.335H71.8728V67.8697ZM71.8728 62.2141H56.1077C52.6713 61.0317 48.5723 55.8263 44.4923 54.8055C42.3102 54.5024 40.0912 54.5969 37.9428 55.0845C36.3418 49.2355 46.7114 49.3465 49.7611 50.4687C49.9186 50.5114 50.0838 50.5173 50.244 50.4862C50.4042 50.455 50.5552 50.3876 50.6852 50.289C50.8153 50.1904 50.9211 50.0634 50.9945 49.9176C51.0678 49.7718 51.1068 49.6111 51.1084 49.4479V22.0579C51.1369 20.0543 55.2549 20.0163 55.2835 22.0579V37.0495C55.2885 37.2688 55.3611 37.4812 55.4915 37.6577C55.6218 37.8342 55.8034 37.9661 56.0115 38.0355C56.2196 38.1049 56.4441 38.1083 56.6542 38.0453C56.8643 37.9823 57.0499 37.856 57.1855 37.6835C57.4196 37.3914 57.7163 37.1555 58.0538 36.9935C58.3912 36.8314 58.7608 36.7473 59.1352 36.7473C59.5095 36.7473 59.8791 36.8314 60.2166 36.9935C60.554 37.1555 60.8508 37.3914 61.0848 37.6835C61.174 37.804 61.2876 37.9044 61.4181 37.9781C61.5486 38.0519 61.6932 38.0973 61.8425 38.1115C62.765 38.1115 63.3229 37.0146 64.3279 37.1605C64.8844 37.1627 65.4235 37.3546 65.8563 37.7044C66.2891 38.0542 66.5897 38.5411 66.7087 39.0847C66.7431 39.2472 66.8153 39.3993 66.9194 39.5287C67.0235 39.6581 67.1565 39.7612 67.3078 39.8297C68.0369 40.1784 68.6805 39.4017 69.4318 39.4905C70.0561 39.4943 70.6556 39.7356 71.1084 40.1655C71.5612 40.5953 71.8334 41.1814 71.8697 41.8047L71.8728 62.2141Z" fill="#7036BA"/>
</g>
<defs>
<filter id="filter0_d_28_154" x="0" y="0" width="78" height="78" filterUnits="userSpaceOnUse" color-interpolation-filters="sRGB">
<feFlood flood-opacity="0" result="BackgroundImageFix"/>
<feColorMatrix in="SourceAlpha" type="matrix" values="0 0 0 0 0 0 0 0 0 0 0 0 0 0 0 0 0 0 127 0" result="hardAlpha"/>
<feOffset dy="4"/>
<feGaussianBlur stdDeviation="2"/>
<feComposite in2="hardAlpha" operator="out"/>
<feColorMatrix type="matrix" values="0 0 0 0 0 0 0 0 0 0 0 0 0 0 0 0 0 0 0.25 0"/>
<feBlend mode="normal" in2="BackgroundImageFix" result="effect1_dropShadow_28_154"/>
<feBlend mode="normal" in="SourceGraphic" in2="effect1_dropShadow_28_154" result="shape"/>
</filter>
</defs>
</svg>
